<svg width="24" height="24" viewBox="0 0 24 24" fill="none" xmlns="http://www.w3.org/2000/svg">
<path d="M23.6425 4.93659C22.8075 5.30659 21.9105 5.55659 20.9675 5.66959C21.9405 5.08738 22.6685 4.17105 23.0155 3.09159C22.1014 3.63458 21.1009 4.01678 20.0575 4.22159C19.3559 3.47245 18.4266 2.97591 17.4138 2.80906C16.4011 2.64221 15.3616 2.81438 14.4568 3.29884C13.5519 3.7833 12.8323 4.55295 12.4097 5.48829C11.9871 6.42363 11.8851 7.47234 12.1195 8.47159C10.2672 8.37858 8.45515 7.89714 6.80095 7.05849C5.14674 6.21985 3.68736 5.04275 2.51752 3.60359C2.11752 4.29359 1.88752 5.09359 1.88752 5.94559C1.88708 6.71258 2.07596 7.46783 2.4374 8.14432C2.79885 8.82081 3.32168 9.39763 3.95952 9.82359C3.2198 9.80005 2.4964 9.60017 1.84952 9.24059V9.30059C1.84945 10.3763 2.22156 11.419 2.90271 12.2516C3.58386 13.0842 4.53209 13.6555 5.58652 13.8686C4.90031 14.0543 4.18086 14.0817 3.48252 13.9486C3.78002 14.8742 4.35952 15.6836 5.13989 16.2635C5.92026 16.8434 6.86244 17.1648 7.83452 17.1826C6.18436 18.478 4.14641 19.1807 2.04852 19.1776C1.6769 19.1777 1.3056 19.156 0.936523 19.1126C3.066 20.4818 5.54486 21.2084 8.07652 21.2056C16.6465 21.2056 21.3315 14.1076 21.3315 7.95159C21.3315 7.75159 21.3265 7.54959 21.3175 7.34959C22.2288 6.69056 23.0154 5.87448 23.6405 4.93959L23.6425 4.93659V4.93659Z" fill="#1DA1F2"/>
</svg>
