<?xml version="1.0" encoding="UTF-8"?>
<svg version="1.1" xmlns="http://www.w3.org/2000/svg" width="1080" height="1080">
<path d="M0 0 C0.92296875 0.89203125 1.8459375 1.7840625 2.796875 2.703125 C4.18132812 4.01023437 4.18132812 4.01023437 5.59375 5.34375 C12.75354792 12.26084291 18.92571447 19.68931585 24.796875 27.703125 C25.42094238 28.55269775 25.42094238 28.55269775 26.05761719 29.41943359 C40.34289169 49.1593946 50.69006732 71.55042081 57.046875 95.015625 C57.28132324 95.86705078 57.51577148 96.71847656 57.75732422 97.59570312 C62.22159174 115.04256054 63.2406817 132.57807897 63.19750977 150.50341797 C63.20326994 152.69890208 63.21035984 154.89438303 63.21865845 157.08985901 C63.23363103 161.77128916 63.2395581 166.45260632 63.23813057 171.13405991 C63.2360765 178.54981429 63.25579714 185.96541928 63.27830505 193.38113403 C63.31717757 207.11132373 63.33639236 220.84149703 63.352148 234.57172983 C63.37427814 253.58566909 63.40867883 272.59958025 63.46167606 291.61345971 C63.48148977 298.97284301 63.49117033 306.33214681 63.49262822 313.69155574 C63.49539349 318.27783977 63.50625521 322.86408032 63.51913834 327.45034599 C63.5233889 329.56295935 63.52429791 331.67558274 63.52146339 333.78819847 C63.48251159 366.60218206 70.08934813 394.94669078 93.734375 419.015625 C113.25393664 438.21981176 138.80965932 447.15211214 165.875 447.06884766 C192.02168321 446.61270353 215.78088014 435.31395332 234.421875 417.14453125 C240.64968974 410.60342705 245.39461767 403.5699391 249.796875 395.703125 C250.26867187 394.87167969 250.74046875 394.04023437 251.2265625 393.18359375 C266.87196919 363.88489738 272.14357458 325.24177704 275.796875 292.703125 C275.90128906 291.79997559 276.00570312 290.89682617 276.11328125 289.96630859 C282.6881706 230.67786812 274.78522055 170.42296905 256.32299805 113.90551758 C251.55995454 98.74883703 251.40660432 84.06290755 258.78417969 69.78881836 C265.64110563 57.38869272 276.35054077 48.84285218 289.79296875 44.42578125 C304.20100509 40.95960866 318.06320808 42.95340434 331.046875 49.98046875 C343.20158855 57.59442994 349.95537005 68.22245757 354.171875 81.703125 C354.54417236 82.86102539 354.91646973 84.01892578 355.30004883 85.21191406 C374.62441351 146.50226961 383.45662127 210.5363737 380.046875 274.765625 C380.00430573 275.57650574 379.96173645 276.38738647 379.9178772 277.22283936 C379.00361416 294.16421378 377.25544787 310.91842848 374.796875 327.703125 C374.54429932 329.4353833 374.54429932 329.4353833 374.28662109 331.20263672 C363.98591414 399.39667459 341.64742873 467.32240504 284.28198242 510.19311523 C270.71743704 519.9683301 256.17025945 528.15325014 240.796875 534.703125 C240.17490234 534.97318359 239.55292969 535.24324219 238.91210938 535.52148438 C222.5901678 542.50182898 204.41957715 546.75348697 186.796875 548.703125 C185.9409375 548.81269531 185.085 548.92226563 184.203125 549.03515625 C166.89355598 550.90041153 148.99553232 550.28437988 131.796875 547.703125 C131.03052734 547.5901709 130.26417969 547.4772168 129.47460938 547.36083984 C87.22753345 540.80253442 50.24996418 520.15274563 19.796875 490.703125 C19.12398437 490.07019531 18.45109375 489.43726563 17.7578125 488.78515625 C-15.32531616 456.98607596 -36.48314259 407.86830069 -38.29783225 362.32632446 C-38.33492505 359.91035542 -38.34425072 357.4960841 -38.34115601 355.07983398 C-38.34397729 354.16519064 -38.34679857 353.25054729 -38.34970534 352.30818748 C-38.35797607 349.27185574 -38.35938309 346.2355608 -38.36083984 343.19921875 C-38.36551371 341.01022745 -38.37065821 338.82123711 -38.37623596 336.63224792 C-38.38747961 331.93047172 -38.3959318 327.22870172 -38.40235519 322.5269165 C-38.41308287 315.07765378 -38.43334114 307.6284357 -38.45547485 300.17919922 C-38.48597029 289.7218471 -38.51520102 279.26449374 -38.54101562 268.80712891 C-38.5434729 267.81336133 -38.5434729 267.81336133 -38.54597981 266.79951763 C-38.57059313 256.74704808 -38.58877886 246.69457678 -38.60449219 236.64208984 C-38.62289365 224.93549284 -38.65189775 213.22897109 -38.6924969 201.52242947 C-38.71347252 195.33816599 -38.72901073 189.15399695 -38.73130417 182.96969604 C-38.73346687 177.14519654 -38.74950005 171.32089368 -38.77569389 165.49645424 C-38.78282667 163.3722168 -38.78501753 161.24795538 -38.78159142 159.12370872 C-38.73970865 128.18953369 -45.48493772 100.15425451 -67.58203125 77.30078125 C-87.40492773 57.76448086 -113.35172856 48.2395391 -140.92797852 48.33959961 C-161.34055469 48.69119033 -180.93624106 55.27794779 -197.203125 67.703125 C-197.7285791 68.09983398 -198.2540332 68.49654297 -198.79541016 68.90527344 C-220.93510272 85.83678558 -233.06658033 109.80091788 -236.92580986 137.22309136 C-237.84533205 145.44639271 -237.61406376 153.76837761 -237.58789062 162.0300293 C-237.59200549 164.22341696 -237.59747173 166.41680243 -237.60417175 168.61018372 C-237.6158194 173.30095057 -237.61840885 177.99160001 -237.61381531 182.68237877 C-237.60695035 190.12073533 -237.6229688 197.55894018 -237.64221191 204.99726868 C-237.67992649 220.79504328 -237.69287635 236.59281467 -237.703125 252.390625 C-237.71418769 269.43482645 -237.72979935 286.47897088 -237.77383757 303.52312595 C-237.79204438 310.89564872 -237.79614014 318.26799503 -237.78890228 325.64053476 C-237.78736517 330.25339875 -237.79825937 334.86617686 -237.81228065 339.47901726 C-237.8162353 341.59352542 -237.81524212 343.70805059 -237.80850792 345.82255173 C-237.75521227 363.97268851 -239.10153759 382.02377418 -244.015625 399.578125 C-244.27496826 400.53170898 -244.53431152 401.48529297 -244.80151367 402.46777344 C-256.72644313 445.26634166 -282.64284932 483.10360977 -318.203125 509.703125 C-318.76370605 510.12980469 -319.32428711 510.55648437 -319.90185547 510.99609375 C-341.57897278 527.45171565 -366.72317353 538.54590303 -393.203125 544.703125 C-394.44707031 544.99703125 -395.69101562 545.2909375 -396.97265625 545.59375 C-448.31173623 556.74728814 -503.15702079 546.9589527 -547.65917969 519.16943359 C-552.66869533 515.88992135 -557.47723377 512.37742053 -562.203125 508.703125 C-562.76080566 508.27241699 -563.31848633 507.84170898 -563.89306641 507.39794922 C-578.68076675 495.8197043 -592.45905607 482.11935067 -603.203125 466.703125 C-603.80447266 465.86031982 -603.80447266 465.86031982 -604.41796875 465.00048828 C-615.71853416 449.11896937 -624.11054825 432.19172718 -630.203125 413.703125 C-630.54698242 412.67525879 -630.89083984 411.64739258 -631.24511719 410.58837891 C-651.51824104 349.49166101 -659.86488168 284.90774638 -656.453125 220.640625 C-656.41055573 219.82974426 -656.36798645 219.01886353 -656.3241272 218.18341064 C-655.40986416 201.24203622 -653.66169787 184.48782152 -651.203125 167.703125 C-650.95054932 165.9708667 -650.95054932 165.9708667 -650.69287109 164.20361328 C-646.66865688 137.56200333 -640.01624304 111.01014046 -631.890625 85.328125 C-631.58987061 84.37397705 -631.28911621 83.4198291 -630.97924805 82.43676758 C-625.88008708 66.98811548 -618.01165859 55.26835412 -603.203125 47.703125 C-591.31574425 42.40548792 -577.76465019 40.97941588 -565.203125 44.703125 C-550.40272781 50.5210985 -539.99722444 59.74746738 -532.953125 74.015625 C-526.7114101 89.11065099 -529.59872993 104.26939799 -534.328125 119.328125 C-535.15710746 122.06643401 -535.97304615 124.80858442 -536.7890625 127.55078125 C-536.99446655 128.23702072 -537.19987061 128.92326019 -537.41149902 129.6302948 C-560.3998877 206.70837216 -559.05432165 286.42664709 -538.203125 363.703125 C-537.9335498 364.72245117 -537.66397461 365.74177734 -537.38623047 366.79199219 C-533.04368178 383.07018448 -526.92937977 397.53628836 -516.203125 410.703125 C-515.53925781 411.53070312 -514.87539063 412.35828125 -514.19140625 413.2109375 C-498.29286884 431.96004447 -475.44271437 443.40298498 -451.203125 446.703125 C-430.25821956 448.33463427 -411.89755925 445.13166647 -393.203125 435.703125 C-392.13320313 435.16816406 -391.06328125 434.63320313 -389.9609375 434.08203125 C-381.91457554 429.72445601 -375.69821175 424.03725479 -369.203125 417.703125 C-368.54570312 417.11917969 -367.88828125 416.53523438 -367.2109375 415.93359375 C-356.25702413 405.96401822 -348.73426054 390.37953803 -344.453125 376.453125 C-344.15486816 375.50796021 -344.15486816 375.50796021 -343.85058594 374.54370117 C-339.65814342 359.95464842 -339.91158969 344.68595919 -339.93188477 329.6574707 C-339.92748791 327.4823131 -339.9221823 325.30715718 -339.91604614 323.13200378 C-339.90461868 318.47780138 -339.89909209 313.82364406 -339.89816475 309.16942787 C-339.89620867 301.79025337 -339.87807134 294.41117084 -339.85740662 287.0320282 C-339.80842613 268.70482924 -339.7773916 250.37760551 -339.75610352 232.050354 C-339.73952378 217.797405 -339.71655716 203.54453575 -339.67308277 189.29163998 C-339.65147077 181.97655601 -339.64323305 174.66162418 -339.64547551 167.34651053 C-339.64379291 162.77083477 -339.62964842 158.19525602 -339.61226273 153.61961555 C-339.60672713 151.52081772 -339.60611783 149.42199921 -339.61120033 147.32320023 C-339.64945405 129.65506584 -338.18773571 112.24826623 -333.515625 95.140625 C-333.26216309 94.19501709 -333.00870117 93.24940918 -332.74755859 92.27514648 C-323.53140877 59.17274871 -305.78040576 30.41790615 -282.203125 5.703125 C-281.40390625 4.85105469 -280.6046875 3.99898438 -279.78125 3.12109375 C-258.48290811 -18.97767602 -230.99004364 -34.3664601 -202.203125 -44.296875 C-201.10532715 -44.67585937 -201.10532715 -44.67585937 -199.98535156 -45.0625 C-131.33819462 -68.19116308 -52.26931221 -49.44394398 0 0 Z " fill="#8FCA9F" transform="translate(678.203125,292.296875)"/>
<path d="M0 0 C0.80695313 0.71542969 1.61390625 1.43085938 2.4453125 2.16796875 C17.08849661 15.89315508 26.42650665 34.78019706 27.27984428 54.95437431 C27.43377862 60.89427328 27.41757744 66.83372064 27.40405273 72.77514648 C27.40976417 75.05154249 27.41673141 77.32793564 27.42485046 79.60432434 C27.44270236 85.74843921 27.44162963 91.89241066 27.43590808 98.03654361 C27.43280752 103.17377016 27.43891765 108.31096951 27.44494683 113.44819218 C27.45976088 126.25405032 27.45620035 139.05980812 27.44408352 151.86566228 C27.43413265 162.97606616 27.44713127 174.08630393 27.47101771 185.19668221 C27.49541103 196.62951991 27.50461752 208.06225091 27.49836498 219.49511963 C27.4949942 225.90424841 27.49742 232.31323963 27.51461601 238.72234917 C27.53006377 244.74141609 27.52615346 250.76016443 27.50731087 256.77921867 C27.50362037 258.9871057 27.50674681 261.19501624 27.51719666 263.40288162 C27.53037488 266.41722594 27.518887 269.4305103 27.50120544 272.44480896 C27.51081045 273.3175694 27.52041546 274.19032984 27.53031152 275.08953756 C27.4605154 280.87454556 26.36010114 284.25366461 23 289 C18.18152735 292.73677471 14.63636798 294.12073935 8.60591125 294.14717102 C7.4858519 294.15432632 6.36579254 294.16148163 5.21179199 294.16885376 C3.98214722 294.17154266 2.75250244 294.17423157 1.4855957 294.17700195 C-0.45625359 294.18685875 -0.45625359 294.18685875 -2.43733215 294.19691467 C-6.73294844 294.2179407 -11.02856502 294.22831713 -15.32421875 294.23828125 C-16.80465018 294.24232965 -18.28508142 294.24644659 -19.76551247 294.25063133 C-26.72270098 294.26968147 -33.6798789 294.28391168 -40.63708848 294.2922433 C-48.65882492 294.30200909 -56.68028494 294.32831188 -64.70192403 294.36874419 C-70.9075807 294.39894582 -77.11315833 294.41371608 -83.31888705 294.41702431 C-87.0225834 294.41937062 -90.72598439 294.42827554 -94.42960167 294.45348549 C-98.56611778 294.48118695 -102.70201996 294.47692276 -106.83862305 294.4699707 C-108.05814667 294.48278076 -109.27767029 294.49559082 -110.53414917 294.50878906 C-117.50347987 294.46611975 -122.08851511 293.78288547 -128 290 C-133.0991742 284.63932968 -133.14865411 280.04289945 -133.14717102 272.93928528 C-133.15084771 272.00062691 -133.1545244 271.06196854 -133.1583125 270.09486598 C-133.1693647 266.9353902 -133.1731959 263.77594731 -133.17700195 260.61645508 C-133.18326578 258.35628657 -133.18991251 256.0961191 -133.19691467 253.83595276 C-133.21797889 246.39715291 -133.22832387 238.95835282 -133.23828125 231.51953125 C-133.24232887 228.95707374 -133.24644579 226.39461633 -133.25063133 223.83215904 C-133.26750804 213.16659824 -133.2821392 202.50104086 -133.28938007 191.83546925 C-133.29128982 189.06747753 -133.29321016 186.29948582 -133.29516602 183.53149414 C-133.29564976 182.84356499 -133.2961335 182.15563583 -133.2966319 181.44686034 C-133.3049135 170.32891627 -133.33021577 159.21108046 -133.36274669 148.09318355 C-133.39591997 136.66179672 -133.4135064 125.2304904 -133.41702431 113.79905051 C-133.41936895 107.38777457 -133.42825214 100.9766694 -133.45348549 94.56543922 C-133.47687898 88.52353598 -133.48095416 82.48191455 -133.47072411 76.43997765 C-133.47023126 74.232645 -133.47647675 72.02529796 -133.49028015 69.81800842 C-133.64280687 43.96202637 -127.72584769 21.66978306 -109.25 2.6875 C-80.12539586 -26.02696409 -30.3692068 -27.67608846 0 0 Z M-49 10 C-51.13861684 12.13861684 -50.21337358 16.96153065 -50.23828125 19.92578125 C-50.246353 20.82491745 -50.25442474 21.72405365 -50.26274109 22.6504364 C-50.27659941 24.55787212 -50.28731371 26.46533283 -50.29516602 28.37280273 C-50.3123675 31.29002991 -50.35623589 34.20612075 -50.40039062 37.12304688 C-50.4105181 38.97394998 -50.41903403 40.82486274 -50.42578125 42.67578125 C-50.44328934 43.54882401 -50.46079742 44.42186676 -50.47883606 45.32136536 C-50.46576779 48.97227159 -50.37046976 51.34256518 -48.55834961 54.55834961 C-44.64635441 56.76279008 -41.05505806 56.49464086 -36.640625 56.390625 C-35.73624695 56.38496521 -34.8318689 56.37930542 -33.90008545 56.37347412 C-31.01618147 56.35111248 -28.13352739 56.30091686 -25.25 56.25 C-23.29298671 56.22993471 -21.33595392 56.21168399 -19.37890625 56.1953125 C-14.58545711 56.15124839 -9.79294035 56.08222252 -5 56 C-2.99843028 49.99529085 -5.89039127 43.41114978 -8.4453125 37.859375 C-16.4563729 23.32768405 -27.46665501 15.28152904 -43.21484375 10.6640625 C-46.00916183 9.88403604 -46.00916183 9.88403604 -49 10 Z M-74 14 C-87.00099478 19.56605089 -95.16581643 29.44506575 -101 42 C-102.46267614 46.5063679 -103.33925931 50.2503696 -103 55 C-100.88524407 57.11475593 -96.21791166 56.21307674 -93.29296875 56.23828125 C-92.41602859 56.246353 -91.53908844 56.25442474 -90.63557434 56.26274109 C-88.77521756 56.27659913 -86.91483518 56.28731356 -85.05444336 56.29516602 C-82.20963221 56.31236619 -79.36598676 56.35623436 -76.52148438 56.40039062 C-74.7161544 56.41051824 -72.91081452 56.41903413 -71.10546875 56.42578125 C-70.25429977 56.44328934 -69.4031308 56.46079742 -68.52616882 56.47883606 C-63.64920659 56.48673555 -63.64920659 56.48673555 -59.4934082 54.09838867 C-56.55368498 49.96778199 -56.87143771 46.40766445 -56.90234375 41.4921875 C-56.90446617 40.23125778 -56.90446617 40.23125778 -56.90663147 38.94485474 C-56.91223763 36.25486725 -56.92479114 33.56496241 -56.9375 30.875 C-56.94251421 29.05338662 -56.94707725 27.23177193 -56.95117188 25.41015625 C-56.96220906 20.94007223 -56.9794778 16.47005014 -57 12 C-62.85841066 8.67538146 -68.05106897 11.74108987 -74 14 Z M-102 66 C-104.58016889 69.43616755 -104.30627403 73.30226269 -104.30078125 77.43359375 C-104.30506638 78.14854507 -104.3093515 78.8634964 -104.31376648 79.60011292 C-104.31949654 81.10880476 -104.3200198 82.61752423 -104.31567383 84.1262207 C-104.31251521 86.42642661 -104.33598258 88.72534371 -104.36132812 91.02539062 C-104.36360151 92.49479005 -104.36430443 93.96419292 -104.36328125 95.43359375 C-104.372491 96.11707382 -104.38170074 96.80055389 -104.39118958 97.50474548 C-104.34952341 101.83536583 -103.72633856 104.60315557 -101 108 C-97.56383245 110.58016889 -93.69773731 110.30627403 -89.56640625 110.30078125 C-88.49397926 110.30720894 -88.49397926 110.30720894 -87.39988708 110.31376648 C-85.89119524 110.31949654 -84.38247577 110.3200198 -82.8737793 110.31567383 C-80.57357339 110.31251521 -78.27465629 110.33598258 -75.97460938 110.36132812 C-74.50520995 110.36360151 -73.03580708 110.36430443 -71.56640625 110.36328125 C-70.88292618 110.372491 -70.19944611 110.38170074 -69.49525452 110.39118958 C-65.16463417 110.34952341 -62.39684443 109.72633856 -59 107 C-56.41983111 103.56383245 -56.69372597 99.69773731 -56.69921875 95.56640625 C-56.69279106 94.49397926 -56.69279106 94.49397926 -56.68623352 93.39988708 C-56.68050346 91.89119524 -56.6799802 90.38247577 -56.68432617 88.8737793 C-56.68748479 86.57357339 -56.66401742 84.27465629 -56.63867188 81.97460938 C-56.63639849 80.50520995 -56.63569557 79.03580708 -56.63671875 77.56640625 C-56.627509 76.88292618 -56.61829926 76.19944611 -56.60881042 75.49525452 C-56.65047659 71.16463417 -57.27366144 68.39684443 -60 65 C-63.43616755 62.41983111 -67.30226269 62.69372597 -71.43359375 62.69921875 C-72.14854507 62.69493362 -72.8634964 62.6906485 -73.60011292 62.68623352 C-75.10880476 62.68050346 -76.61752423 62.6799802 -78.1262207 62.68432617 C-80.42642661 62.68748479 -82.72534371 62.66401742 -85.02539062 62.63867188 C-86.49479005 62.63639849 -87.96419292 62.63569557 -89.43359375 62.63671875 C-90.11707382 62.627509 -90.80055389 62.61829926 -91.50474548 62.60881042 C-95.83536583 62.65047659 -98.60315557 63.27366144 -102 66 Z M-49 66 C-50.59391702 69.18783404 -50.20537707 72.64525284 -50.23828125 76.1484375 C-50.246353 76.95737457 -50.25442474 77.76631165 -50.26274109 78.59976196 C-50.2765799 80.31290545 -50.28730297 82.02607648 -50.29516602 83.73925781 C-50.31238789 86.35795324 -50.35627479 88.97538894 -50.40039062 91.59375 C-50.41051689 93.25780321 -50.4190332 94.92186716 -50.42578125 96.5859375 C-50.44328934 97.36834808 -50.46079742 98.15075867 -50.47883606 98.95687866 C-50.46466433 102.51249481 -50.31837877 104.57355081 -48.16088867 107.46337891 C-42.71429955 111.3364816 -35.78197106 110.22339624 -29.37646484 110.24023438 C-27.13992047 110.24993528 -24.90429739 110.28096772 -22.66796875 110.3125 C-21.23958877 110.31903116 -19.81120224 110.32428119 -18.3828125 110.328125 C-17.08746582 110.3374707 -15.79211914 110.34681641 -14.45751953 110.35644531 C-9.7903262 109.87529136 -7.26855507 108.26855507 -4 105 C-3.80016016 102.32176913 -3.72019015 99.74923695 -3.734375 97.0703125 C-3.73246155 96.28357147 -3.7305481 95.49683044 -3.72857666 94.68624878 C-3.72721451 93.0201587 -3.73091302 91.35405802 -3.73925781 89.68798828 C-3.74992871 87.14200839 -3.73937855 84.5967387 -3.7265625 82.05078125 C-3.72788465 80.43229011 -3.73044819 78.81379941 -3.734375 77.1953125 C-3.73032654 76.4347757 -3.72627808 75.67423889 -3.72210693 74.89065552 C-3.71647595 69.59873144 -3.71647595 69.59873144 -6 65 C-9.49274009 62.3886007 -13.46816986 62.69382773 -17.65234375 62.69921875 C-18.38949112 62.69493362 -19.12663849 62.6906485 -19.88612366 62.68623352 C-21.44189428 62.68050254 -22.99769169 62.67998088 -24.5534668 62.68432617 C-26.92608633 62.68748481 -29.29745649 62.6640182 -31.66992188 62.63867188 C-33.18489427 62.63639851 -34.69987 62.63569556 -36.21484375 62.63671875 C-36.9201976 62.627509 -37.62555145 62.61829926 -38.35227966 62.60881042 C-42.73526911 62.64971546 -45.51367999 63.30910053 -49 66 Z M-101.46337891 118.90161133 C-104.22799012 122.67692646 -104.17539444 125.69799277 -104.203125 130.23828125 C-104.20882507 130.95606247 -104.21452515 131.67384369 -104.22039795 132.41337585 C-104.22984952 133.93401617 -104.23638256 135.45467699 -104.24023438 136.9753418 C-104.24991925 139.29317389 -104.2809308 141.61011125 -104.3125 143.92773438 C-104.31903237 145.40624474 -104.32428192 146.88476145 -104.328125 148.36328125 C-104.3404718 149.05303543 -104.3528186 149.74278961 -104.36553955 150.45344543 C-104.34010084 155.99579694 -102.87206284 159.12793716 -99 163 C-96.33371978 163.22437405 -93.77432988 163.32813665 -91.10546875 163.3359375 C-89.92891472 163.3459227 -89.92891472 163.3459227 -88.72859192 163.35610962 C-87.06672513 163.36624415 -85.40481758 163.37092639 -83.74291992 163.37060547 C-81.20748092 163.37496564 -78.67380114 163.41123744 -76.13867188 163.44921875 C-74.52344345 163.4550895 -72.90820675 163.45905717 -71.29296875 163.4609375 C-70.53759323 163.47530853 -69.78221771 163.48967957 -69.00395203 163.50448608 C-65.33068519 163.47282602 -63.18886697 163.11765381 -60.04418945 161.15869141 C-55.36654415 156.2190354 -56.77664469 148.83489249 -56.75976562 142.43139648 C-56.75007979 140.20583438 -56.71905468 137.98120408 -56.6875 135.75585938 C-56.68096728 134.33073462 -56.67571786 132.90560329 -56.671875 131.48046875 C-56.6625293 130.19035889 -56.65318359 128.90024902 -56.64355469 127.57104492 C-57.0294815 123.7046398 -57.96595672 121.28969051 -60 118 C-63.18783404 116.40608298 -66.64525284 116.79462293 -70.1484375 116.76171875 C-70.95737457 116.753647 -71.76631165 116.74557526 -72.59976196 116.73725891 C-74.31290545 116.7234201 -76.02607648 116.71269703 -77.73925781 116.70483398 C-80.35795324 116.68761211 -82.97538894 116.64372521 -85.59375 116.59960938 C-87.25780321 116.58948311 -88.92186716 116.5809668 -90.5859375 116.57421875 C-91.36834808 116.55671066 -92.15075867 116.53920258 -92.95687866 116.52116394 C-96.55548979 116.53550704 -98.57119605 116.66898375 -101.46337891 118.90161133 Z M-48.49975586 118.51611328 C-50.62456159 122.03405852 -50.5920306 125.31501863 -50.56640625 129.30859375 C-50.57260483 130.11232925 -50.57880341 130.91606476 -50.58518982 131.74415588 C-50.59228199 133.44115998 -50.5891244 135.13823374 -50.57641602 136.83520508 C-50.56256176 139.42595118 -50.59660937 142.01307524 -50.63476562 144.60351562 C-50.63571701 146.25520921 -50.63385696 147.90690731 -50.62890625 149.55859375 C-50.64216446 150.32956894 -50.65542267 151.10054413 -50.66908264 151.8948822 C-50.60361724 155.69479515 -50.12089857 157.82194938 -47.97241211 160.98608398 C-44.22532961 163.52486703 -41.19361106 163.72350489 -36.8125 163.6640625 C-36.03237549 163.66884613 -35.25225098 163.67362976 -34.44848633 163.67855835 C-32.80450414 163.68195008 -31.16045385 163.67279831 -29.51660156 163.65185547 C-27.00692705 163.62507392 -24.50172371 163.651622 -21.9921875 163.68359375 C-20.39061518 163.68028952 -18.78904562 163.67388299 -17.1875 163.6640625 C-16.44153564 163.67418365 -15.69557129 163.68430481 -14.92700195 163.69473267 C-11.18996062 163.61109707 -9.13290429 163.09075698 -6.02758789 160.97021484 C-3.46789688 157.22052179 -3.29306 154.20301717 -3.37109375 149.8125 C-3.36868179 149.03237549 -3.36626984 148.25225098 -3.36378479 147.44848633 C-3.36476122 145.80447286 -3.37810628 144.16042568 -3.40307617 142.51660156 C-3.43739985 140.00732176 -3.42372463 137.50156422 -3.40429688 134.9921875 C-3.41119574 133.39061009 -3.4208685 131.78904172 -3.43359375 130.1875 C-3.42863388 129.44153564 -3.42367401 128.69557129 -3.41856384 127.92700195 C-3.49550844 124.50532835 -3.9533549 122.09241727 -5.50024414 119.02758789 C-9.01851775 116.17386562 -12.22367152 116.29900809 -16.5625 116.37109375 C-17.39080322 116.36868179 -18.21910645 116.36626984 -19.07250977 116.36378479 C-20.82084956 116.36476272 -22.56922052 116.37814379 -24.31738281 116.40307617 C-26.99130588 116.43738844 -29.66192392 116.4237344 -32.3359375 116.40429688 C-34.03647238 116.41119554 -35.73699874 116.42086811 -37.4375 116.43359375 C-38.23551025 116.42863388 -39.03352051 116.42367401 -39.85571289 116.41856384 C-43.22500902 116.48993762 -45.59419809 116.7538793 -48.49975586 118.51611328 Z M-3 184 C-3.72509943 187.86719695 -3.33767324 189.43721126 -1.3125 192.8125 C1.31561005 195.29855004 2.39758294 196 6 196 C10.29799298 194.42042918 10.29799298 194.42042918 13 191 C13.49512681 186.62637986 13.49223866 184.68044756 10.875 181.0625 C8.16232816 178.82256334 8.16232816 178.82256334 5 178.375 C0.9256644 179.22381992 -0.54405875 180.67725596 -3 184 Z " fill="#FFFFFF" transform="translate(593,379)"/>
<path d="M0 0 C1.05004032 -0.00644889 2.10008065 -0.01289778 3.18194038 -0.0195421 C4.90283536 -0.01489629 4.90283536 -0.01489629 6.6584959 -0.01015663 C7.88218921 -0.01468774 9.10588251 -0.01921886 10.36665744 -0.02388728 C13.76045815 -0.03436006 17.15404699 -0.0358567 20.54784882 -0.03349853 C24.20917697 -0.03309039 27.8704735 -0.04412922 31.53178692 -0.05361366 C38.70403624 -0.07022538 45.8762527 -0.07572329 53.04851965 -0.07683842 C58.87880994 -0.07778883 64.70908939 -0.08189876 70.53937626 -0.08823967 C87.07057424 -0.10585268 103.60174625 -0.11507847 120.13295368 -0.11357872 C121.46970849 -0.11345885 121.46970849 -0.11345885 122.83346844 -0.11333656 C124.1718561 -0.11321392 124.1718561 -0.11321392 125.53728189 -0.1130888 C139.99722395 -0.11227592 154.45706183 -0.13141395 168.91697375 -0.1596133 C183.76554105 -0.18834201 198.61405754 -0.20215359 213.46265334 -0.20042574 C221.79851536 -0.19976183 230.13426818 -0.20525471 238.47010517 -0.22678185 C245.56758143 -0.2449935 252.66489899 -0.24934117 259.76238851 -0.235763 C263.38267682 -0.22923315 267.00266068 -0.22911634 270.62292004 -0.2464695 C274.55020281 -0.26510047 278.47704109 -0.25264595 282.40434551 -0.23720741 C283.54491667 -0.24749454 284.68548783 -0.25778167 285.86062175 -0.26838052 C295.50070447 -0.18456485 301.13402131 2.49168642 308.28439617 8.88226891 C313.94791903 13.80570384 319.99012846 17.9473568 326.27658367 22.03070641 C326.85061932 22.40493736 327.42465496 22.77916832 328.01608562 23.16473961 C329.7038165 24.24568932 331.41797085 25.28501633 333.13205242 26.32367516 C335.72189617 28.25726891 335.72189617 28.25726891 336.28439617 31.81976891 C335.72189617 35.25726891 335.72189617 35.25726891 334.57629585 36.94851744 C331.86930201 38.85899132 329.78355329 38.63338405 326.48900127 38.63479233 C325.17512149 38.64261557 323.8612417 38.65043881 322.50754738 38.65849912 C321.04066567 38.65201229 319.57378518 38.64524229 318.10690594 38.63821983 C316.55552656 38.64167423 315.00414962 38.64643732 313.45277786 38.65240157 C309.17828968 38.6649713 304.90400139 38.65871419 300.62951231 38.64944291 C296.02413361 38.6426771 291.41879017 38.65312135 286.81341839 38.66138268 C277.78699321 38.67474867 268.7606427 38.67182954 259.73421454 38.66314475 C252.40068526 38.65637986 245.06717695 38.6554463 237.73364544 38.6587162 C236.17025066 38.65940575 236.17025066 38.65940575 234.57527214 38.66010923 C232.45818193 38.66106837 230.34109173 38.66204101 228.22400153 38.663027 C208.35461116 38.67158929 188.48526227 38.66173362 168.6158787 38.6456259 C151.55321531 38.63222197 134.49061314 38.63454982 117.42795086 38.64838219 C97.63147091 38.6644232 77.83502734 38.67076524 58.03854179 38.6615454 C55.92907684 38.66058971 53.81961187 38.6596466 51.7101469 38.6587162 C50.15314936 38.65802196 50.15314936 38.65802196 48.56469733 38.6573137 C41.23680854 38.65471937 33.90894277 38.65910433 26.58105755 38.66615486 C17.65534867 38.67455366 8.72971898 38.67232396 -0.19598079 38.65631263 C-4.7532673 38.64840801 -9.31042161 38.64537543 -13.86770725 38.65526009 C-18.03498983 38.66416238 -22.20201695 38.65934846 -26.36927617 38.64332743 C-27.88134034 38.63996058 -29.39342585 38.64171609 -30.90547645 38.64895479 C-32.95203938 38.65800509 -34.99866227 38.64697809 -37.04520893 38.63479233 C-38.18464231 38.63430527 -39.32407568 38.63381821 -40.49803734 38.6333164 C-43.27810383 38.25726891 -43.27810383 38.25726891 -45.12957382 36.94509947 C-47.17219661 33.9433484 -46.86662847 31.75069083 -46.27810383 28.25726891 C-43.98879696 26.21190457 -42.14036766 24.87980313 -39.52810383 23.38226891 C-38.14342138 22.52721683 -36.76063102 21.66909375 -35.37966633 20.80805016 C-34.68647297 20.38346519 -33.99327961 19.95888023 -33.27908039 19.52142906 C-27.46738158 15.84976283 -22.08039929 11.49228081 -16.71169758 7.21039391 C-15.92923664 6.58648766 -15.1467757 5.96258141 -14.34060383 5.31976891 C-13.33706867 4.50185875 -13.33706867 4.50185875 -12.31326008 3.66742516 C-8.34841627 0.92019173 -4.78700013 0.00745135 0 0 Z " fill="#FFFFFF" transform="translate(395.2781038284302,803.7427310943604)"/>
<path d="M0 0 C0.82677401 -0.00467997 1.65354803 -0.00935994 2.5053758 -0.01418173 C5.25590204 -0.02607921 8.00592517 -0.01669523 10.75645447 -0.00723267 C12.73640227 -0.01130067 14.71634781 -0.01664383 16.69628906 -0.02316284 C22.0598075 -0.03681409 27.4231524 -0.03154703 32.78667378 -0.02202559 C38.40481479 -0.01441874 44.02294116 -0.02147735 49.64108276 -0.02618408 C59.07377281 -0.03163818 68.50639232 -0.02445858 77.93907166 -0.01016235 C88.83979124 0.00616819 99.74034251 0.00087128 110.64105803 -0.01564157 C120.00687094 -0.02926059 129.37263323 -0.03117419 138.73845285 -0.02332556 C144.32939725 -0.01865196 149.92026256 -0.01801574 155.51120186 -0.02793503 C160.7668374 -0.03660859 166.02225612 -0.03057552 171.27786827 -0.01325226 C173.2051622 -0.00928973 175.13247442 -0.01041746 177.05976105 -0.01704025 C179.69332494 -0.02525489 182.32619682 -0.01493528 184.9597168 0 C185.7198415 -0.00669217 186.47996621 -0.01338433 187.263125 -0.02027929 C193.46652221 0.04781964 198.12231499 1.43874774 202.96324158 5.53720093 C206.09688894 9.16983673 208.90433951 12.96130958 211.66636658 16.88095093 C212.47847595 18.00050171 212.47847595 18.00050171 213.30699158 19.14266968 C213.82261658 19.87098999 214.33824158 20.5993103 214.86949158 21.34970093 C215.56800232 22.33099976 215.56800232 22.33099976 216.28062439 23.3321228 C217.60347357 25.71848358 218.13091736 27.67082391 218.41636658 30.38095093 C217.27477468 32.66413473 216.22623975 34.57107775 214.41636658 36.38095093 C211.29053573 36.490137 208.18646384 36.53320202 205.05984497 36.53485107 C204.06542603 36.53923333 203.0710071 36.54361558 202.04645425 36.54813063 C198.68692776 36.56157287 195.32742753 36.5677096 191.96788025 36.57382202 C189.57031128 36.58171866 187.1727435 36.58998733 184.775177 36.59860229 C177.56009495 36.62260297 170.34501107 36.63775736 163.12990305 36.65066236 C161.0930949 36.65437247 159.05628745 36.65834585 157.01947999 36.66241503 C144.37983868 36.68765009 131.74019634 36.7097102 119.10053539 36.72214317 C116.17122583 36.72507303 113.24191629 36.72803467 110.31260681 36.73104858 C109.58451155 36.73179463 108.85641629 36.73254069 108.10625754 36.73330934 C96.30753893 36.74596705 84.50897089 36.77919397 72.7103227 36.82085042 C60.60557786 36.86323831 48.50091016 36.88683457 36.39609128 36.89206374 C29.59613371 36.8954815 22.79641138 36.90727913 15.99652672 36.94016647 C9.60175936 36.97104315 3.2072902 36.97660149 -3.18754387 36.96478271 C-5.5386012 36.96456098 -7.88967695 36.97294762 -10.24066925 36.99043655 C-13.44300167 37.01296758 -16.64382326 37.00490726 -19.84616089 36.98895264 C-20.78321879 37.00283472 -21.72027669 37.01671681 -22.68573028 37.03101957 C-28.95055148 36.9537635 -28.95055148 36.9537635 -32.18953991 34.0231266 C-33.58363342 31.38095093 -33.58363342 31.38095093 -33.62660217 28.49813843 C-32.33996738 24.65269061 -30.32301629 21.6983164 -27.89613342 18.50595093 C-27.44061096 17.89388794 -26.9850885 17.28182495 -26.51576233 16.6512146 C-25.61341477 15.43947699 -24.70758935 14.23032002 -23.79798889 13.02401733 C-22.77941256 11.64584711 -21.81689945 10.2264836 -20.86878967 8.79891968 C-20.17076233 7.75671265 -20.17076233 7.75671265 -19.45863342 6.69345093 C-19.0848053 6.11208374 -18.71097717 5.53071655 -18.32582092 4.93173218 C-13.20316888 0.37188272 -6.51608063 -0.05753666 0 0 Z " fill="#FFFFFF" transform="translate(447.58363342285156,747.6190490722656)"/>
<path d="M0 0 C0.64267673 -0.00367669 1.28535346 -0.00735338 1.94750524 -0.01114148 C4.11078378 -0.02219435 6.27401432 -0.02602486 8.43731689 -0.02983093 C9.9845088 -0.03609441 11.5316992 -0.04274111 13.07888794 -0.04974365 C17.28977664 -0.06716492 21.50065397 -0.07770865 25.71156979 -0.08594918 C28.34186692 -0.09109735 30.97216051 -0.09717318 33.60245514 -0.10346031 C41.83041111 -0.12251622 50.05835809 -0.13674606 58.28633189 -0.14507228 C67.78700213 -0.15484479 77.28743939 -0.1811629 86.78802752 -0.22157317 C94.12907954 -0.25172726 101.47006475 -0.26654051 108.81117749 -0.26985329 C113.19667974 -0.27220475 117.58193321 -0.28117727 121.96736908 -0.30631447 C126.09439652 -0.32958772 130.22101127 -0.33383158 134.34808731 -0.32355309 C135.86138659 -0.32305742 137.37470612 -0.32938713 138.88794327 -0.34310913 C140.95752721 -0.36082325 143.02562928 -0.35372647 145.09521484 -0.34057617 C146.25223278 -0.34296453 147.40925072 -0.34535288 148.6013298 -0.34781361 C153.53751299 0.41567009 156.62322691 2.90614515 160.00469971 6.46748352 C162.07594896 9.55634654 163.30940067 12.51801341 164.55157471 16.02217102 C164.97954346 17.1952179 165.40751221 18.36826477 165.84844971 19.57685852 C166.84392929 23.30582711 167.09845049 26.30634057 166.80157471 30.14717102 C164.03260833 34.6961872 164.03260833 34.6961872 161.09702206 35.77162647 C157.98550436 36.28068346 154.97807913 36.27668333 151.82441711 36.28088379 C150.7710258 36.28428212 150.7710258 36.28428212 149.69635385 36.28774911 C147.34347129 36.29407867 144.99064648 36.29326042 142.63775635 36.29243469 C140.95071844 36.29542681 139.26368122 36.29882946 137.5766449 36.3026123 C132.99404391 36.31145047 128.41146158 36.31379032 123.82885289 36.31442809 C120.00420129 36.31537745 116.17955404 36.319056 112.35490412 36.32260019 C103.33264949 36.33074379 94.31040485 36.33318448 85.28814697 36.33247375 C75.97800858 36.33187274 66.66792809 36.34242946 57.35780436 36.35821742 C49.3662015 36.37128704 41.37461759 36.37665791 33.38300413 36.37601835 C28.60920294 36.37576322 23.83545322 36.37862259 19.06166267 36.3891964 C14.57273865 36.39886781 10.08391541 36.39896313 5.59498787 36.39167976 C3.94743706 36.39063278 2.29988001 36.39300353 0.65233994 36.39904022 C-1.59665367 36.40674705 -3.84529808 36.40212419 -6.09428406 36.39440918 C-7.98215842 36.39522633 -7.98215842 36.39522633 -9.90817165 36.39605999 C-14.04347207 36.08324804 -16.95583496 35.30406547 -20.01092529 32.45967102 C-22.22042462 28.15696181 -21.5070231 23.66919296 -20.13201904 19.17451477 C-19.65142213 17.80474764 -19.15219148 16.44139671 -18.63592529 15.08467102 C-18.37070068 14.37947327 -18.10547607 13.67427551 -17.83221436 12.94770813 C-14.40358444 4.42690573 -9.36284994 0.03462711 0 0 Z " fill="#FFFFFF" transform="translate(467.19842529296875,692.8528289794922)"/>
<path d="M0 0 C-1.42062515 3.2268998 -3.14245441 5.39942512 -5.625 7.890625 C-6.33140625 8.59960938 -7.0378125 9.30859375 -7.765625 10.0390625 C-8.50296875 10.76867187 -9.2403125 11.49828125 -10 12.25 C-10.73734375 12.99507813 -11.4746875 13.74015625 -12.234375 14.5078125 C-13.29398437 15.56355469 -13.29398437 15.56355469 -14.375 16.640625 C-15.02210938 17.28547852 -15.66921875 17.93033203 -16.3359375 18.59472656 C-18 20 -18 20 -20 20 C-18.57937485 16.7731002 -16.85754559 14.60057488 -14.375 12.109375 C-13.66859375 11.40039062 -12.9621875 10.69140625 -12.234375 9.9609375 C-11.49703125 9.23132813 -10.7596875 8.50171875 -10 7.75 C-9.26265625 7.00492187 -8.5253125 6.25984375 -7.765625 5.4921875 C-6.70601563 4.43644531 -6.70601563 4.43644531 -5.625 3.359375 C-4.97789062 2.71452148 -4.33078125 2.06966797 -3.6640625 1.40527344 C-2 0 -2 0 0 0 Z " fill="#9ED1AC" transform="translate(408,288)"/>
<path d="M0 0 C0.66 0 1.32 0 2 0 C0.59155282 3.21524305 -1.10344786 5.32183868 -3.625 7.75 C-4.57246094 8.67039062 -4.57246094 8.67039062 -5.5390625 9.609375 C-6.02117188 10.06828125 -6.50328125 10.5271875 -7 11 C-7.66 10.67 -8.32 10.34 -9 10 C-7.8758824 8.70756532 -6.75067408 7.41607925 -5.625 6.125 C-4.99851562 5.40570313 -4.37203125 4.68640625 -3.7265625 3.9453125 C-2.52573166 2.5923402 -1.2791655 1.2791655 0 0 Z " fill="#9DD0AB" transform="translate(950,346)"/>
</svg>
